<svg xmlns="http://www.w3.org/2000/svg" width="48" height="48"><path d="M24.031 46.146c12.251 0 22.18-9.915 22.18-22.146 0-12.232-9.929-22.146-22.18-22.146C11.784 1.854 1.858 11.768 1.858 24c0 12.23 9.926 22.146 22.173 22.146zm0-46.146C37.31 0 48.068 10.746 48.068 24s-10.76 24-24.037 24C10.761 48 0 37.254 0 24S10.76 0 24.031 0zm0 41c-.79 0-1.266-.527-1.295-1.248-.173.325-.396.545-.732.612a1.69 1.69 0 01-.99-.114 1.325 1.325 0 01-.701-.654c-.15-.304-.1-.617.007-.982-.372.53-1 .668-1.553.412-.758-.352-1.034-.991-.723-1.72.936-2.208 1.867-4.376 2.807-6.581.085-.2.157-.407.251-.606.084-.177.137-.307.216-.414a.757.757 0 01.221-.199c-1.454.159-2.153.728-2.538.98-.102.068-.096.078-.489-.044a.69.69 0 00-.521.056 3.878 3.878 0 00-.51.323c-.521.404-1.053.794-1.546 1.23-.23.204-.56.551-.515.865.036.291.751.965.965 1.166.507.476-.26 1.372-1.282 1.287.272-.284.336-.525.301-.739-.101-.001-.296.018-.48-.146-.22-.197-.122-.779-.326-.977-.36-.348-1.537-.38-2.24-.41-.296-.012-.605-.091-.583-.548-.447.03-.54.36-.54.658-.385-.216-.714-1.252.706-1.487-.24-.217-.638-.296-.883-.02-.231-.38.353-1.127 1.404-.706-.003-.003.473-.621 1.894.96.179-.134.357-.266.52-.416.55-.497 1.936-1.843 1.936-1.843 0-.757.114-2.223 1.121-3.102.429-.375.84-.574 1.748-.737 0 0-.439-.683-.508-.952-.792.786-2.383 1.021-2.383-.305-1.297 1.287-2.502.593-2.502-.215a5.248 5.248 0 01-.277 1.2c-.163.434-.757 2.097-2.29 2.097-.035.578-.038 2.479-1.87 2.905-.079.018-.18.045-.23.105-.74.914-3.816 1.874-4.192 1.615.238-.17.615-.395.675-1.468.038-.708.116-4.382.116-9.557 0-1.832.199-7.766 6.11-8.593.897-.125 1.779-.06 2.543.503 1.04.772 1.552 2.07.94 3.541-.02.053-.035.105-.063.152-.208.35-.123.652.148.92.493.487 1.068.816 1.76.896.436.05.798-.141 1.087-.439.663-.678 1.113-1.475 1.276-2.411.308-1.778-.17-2.67-.197-2.726-.481-.958-1.502-1.66-2.686-1.76-.542-1.006-2.098-.608-2.098-.608-.39.084-.527.194-.624.385 0 0-.683-1.032-.04-1.446.645-.415 2.084-.586 2.084-.586 0-.672 1.12-1.195 3.143-.836 2.447.434 2.973-.516 2.973-.516.103 1.162-.793 1.762-1.08 1.924.929 1 2.226 2.998 2.535 5.833.31-2.835 1.607-4.833 2.535-5.833-.287-.162-1.182-.762-1.08-1.924 0 0 .526.95 2.973.516 2.024-.359 3.144.164 3.144.836 0 0 1.439.17 2.083.586.644.414-.04 1.446-.04 1.446-.097-.191-.234-.3-.624-.385 0 0-1.556-.398-2.098.608-1.184.1-2.204.802-2.685 1.76-.027.056-.477.94-.198 2.726.147.938.613 1.733 1.277 2.411.289.298.65.488 1.087.439.691-.08 1.267-.41 1.76-.896.27-.268.355-.57.148-.92-.029-.047-.044-.099-.063-.152-.613-1.47-.1-2.77.94-3.54.763-.563 1.646-.63 2.542-.504 5.912.827 6.11 6.761 6.11 8.593 0 5.175.079 8.849.116 9.557.06 1.073.437 1.298.676 1.468-.377.26-3.453-.701-4.193-1.615-.05-.06-.15-.087-.229-.105-1.832-.426-1.835-2.327-1.87-2.905-1.533 0-2.128-1.663-2.291-2.097a5.247 5.247 0 01-.277-1.2c0 .808-1.204 1.502-2.501.215 0 1.326-1.592 1.091-2.383.305-.07.269-.51.952-.51.952.91.163 1.32.362 1.75.737 1.006.88 1.12 2.345 1.12 3.102 0 0 1.387 1.346 1.937 1.843.162.15.34.282.52.416 1.42-1.581 1.896-.963 1.893-.96 1.051-.421 1.635.327 1.405.705-.245-.275-.644-.196-.884.02 1.42.236 1.091 1.272.707 1.488 0-.298-.094-.628-.54-.658.022.457-.288.536-.584.548-.703.03-1.88.062-2.24.41-.204.198-.105.78-.326.977-.183.164-.378.145-.48.146-.034.214.03.455.302.74-1.023.084-1.79-.812-1.282-1.288.212-.2.928-.875.964-1.166.046-.314-.285-.661-.515-.865-.493-.436-1.024-.826-1.546-1.23a3.878 3.878 0 00-.51-.323.69.69 0 00-.52-.056c-.393.122-.387.112-.49.045-.385-.253-1.083-.822-2.538-.98.099.06.166.124.221.198.08.107.133.237.216.414.094.2.167.406.252.606.94 2.205 1.87 4.373 2.806 6.58.312.73.035 1.37-.722 1.72-.554.257-1.182.12-1.553-.41.107.364.157.677.006.981a1.322 1.322 0 01-.7.654 1.69 1.69 0 01-.99.114c-.337-.067-.56-.287-.733-.612-.029.721-.505 1.249-1.295" fill="#9096A3" fill-rule="evenodd"/></svg>
